<mxfile host="65bd71144e">
    <diagram id="EX6qf54npOTaDvs-NjaZ" name="Page-1">
        <mxGraphModel dx="510" dy="689" grid="1" gridSize="10" guides="1" tooltips="1" connect="1" arrows="1" fold="1" page="1" pageScale="1" pageWidth="850" pageHeight="1100" math="0" shadow="0">
            <root>
                <mxCell id="0"/>
                <mxCell id="1" parent="0"/>
                <mxCell id="2" value="" style="whiteSpace=wrap;html=1;" vertex="1" parent="1">
                    <mxGeometry x="270" y="380" width="130" height="140" as="geometry"/>
                </mxCell>
                <mxCell id="4" value="Styles (Sizes) | Enum" style="text;html=1;align=center;verticalAlign=middle;resizable=0;points=[];autosize=1;strokeColor=none;fillColor=none;" vertex="1" parent="1">
                    <mxGeometry x="270" y="360" width="130" height="20" as="geometry"/>
                </mxCell>
                <mxCell id="5" value="MINI" style="text;html=1;align=center;verticalAlign=middle;resizable=0;points=[];autosize=1;strokeColor=none;fillColor=none;" vertex="1" parent="1">
                    <mxGeometry x="270" y="390" width="40" height="20" as="geometry"/>
                </mxCell>
                <mxCell id="6" value="MEDIUM" style="text;html=1;align=center;verticalAlign=middle;resizable=0;points=[];autosize=1;strokeColor=none;fillColor=none;" vertex="1" parent="1">
                    <mxGeometry x="270" y="410" width="60" height="20" as="geometry"/>
                </mxCell>
                <mxCell id="7" value="LARGE" style="text;html=1;align=center;verticalAlign=middle;resizable=0;points=[];autosize=1;strokeColor=none;fillColor=none;" vertex="1" parent="1">
                    <mxGeometry x="270" y="430" width="60" height="20" as="geometry"/>
                </mxCell>
                <mxCell id="8" value="" style="whiteSpace=wrap;html=1;" vertex="1" parent="1">
                    <mxGeometry x="500" y="370" width="290" height="140" as="geometry"/>
                </mxCell>
                <mxCell id="9" value="Current Default Style (useState)" style="text;html=1;align=center;verticalAlign=middle;resizable=0;points=[];autosize=1;strokeColor=none;fillColor=none;" vertex="1" parent="1">
                    <mxGeometry x="540" y="350" width="190" height="20" as="geometry"/>
                </mxCell>
                <mxCell id="10" value="const [currentDefaultStyle, setCurrentDefaultStyle] = &lt;br&gt;useState&lt;br&gt;&amp;lt;blockStyles&amp;gt;&lt;br&gt;(blockStyles.MEDIUM))]" style="text;html=1;align=center;verticalAlign=middle;resizable=0;points=[];autosize=1;strokeColor=none;fillColor=none;" vertex="1" parent="1">
                    <mxGeometry x="500" y="390" width="290" height="60" as="geometry"/>
                </mxCell>
                <mxCell id="11" value="ParentToChildsMapping (New Map())" style="text;html=1;align=center;verticalAlign=middle;resizable=0;points=[];autosize=1;strokeColor=none;fillColor=none;" vertex="1" parent="1">
                    <mxGeometry x="990" y="350" width="210" height="20" as="geometry"/>
                </mxCell>
                <mxCell id="12" value="" style="whiteSpace=wrap;html=1;" vertex="1" parent="1">
                    <mxGeometry x="920" y="370" width="350" height="140" as="geometry"/>
                </mxCell>
                <mxCell id="13" value="const [ParentsToChildsMapping, setParentsToChildsMapping] = &lt;br&gt;useState&amp;lt;Map&amp;gt;&lt;br&gt;(new Map())" style="text;html=1;align=center;verticalAlign=middle;resizable=0;points=[];autosize=1;strokeColor=none;fillColor=none;" vertex="1" parent="1">
                    <mxGeometry x="920" y="410" width="350" height="50" as="geometry"/>
                </mxCell>
                <mxCell id="14" value="" style="whiteSpace=wrap;html=1;" vertex="1" parent="1">
                    <mxGeometry x="1400" y="370" width="270" height="140" as="geometry"/>
                </mxCell>
                <mxCell id="15" value="Node Refs Array (useRef)" style="text;html=1;align=center;verticalAlign=middle;resizable=0;points=[];autosize=1;strokeColor=none;fillColor=none;" vertex="1" parent="1">
                    <mxGeometry x="1470" y="350" width="150" height="20" as="geometry"/>
                </mxCell>
                <mxCell id="16" value="const NodesRefrences&amp;nbsp; = useRef(new Array())" style="text;html=1;align=center;verticalAlign=middle;resizable=0;points=[];autosize=1;strokeColor=none;fillColor=none;" vertex="1" parent="1">
                    <mxGeometry x="1410" y="380" width="260" height="20" as="geometry"/>
                </mxCell>
                <mxCell id="17" value="useEffect(Initial Render) =&amp;gt; {&lt;br&gt;&lt;span style=&quot;white-space: pre&quot;&gt;&#9;&lt;/span&gt;renderBaseSteps;&lt;br&gt;&lt;span style=&quot;white-space: pre&quot;&gt;&#9;&lt;/span&gt;forEach =&amp;gt; {&lt;br&gt;&lt;span style=&quot;white-space: pre&quot;&gt;&#9;&lt;/span&gt;&lt;span style=&quot;white-space: pre&quot;&gt;&#9;&lt;/span&gt;addStepRef(Node Refs Array)&lt;br&gt;&amp;nbsp; &amp;nbsp; &amp;nbsp;}&lt;br&gt;}, [])" style="text;html=1;align=left;verticalAlign=middle;resizable=0;points=[];autosize=1;strokeColor=none;fillColor=none;" vertex="1" parent="1">
                    <mxGeometry x="680" y="660" width="230" height="90" as="geometry"/>
                </mxCell>
                <mxCell id="18" value="" style="whiteSpace=wrap;html=1;" vertex="1" parent="1">
                    <mxGeometry x="600" y="170" width="90" height="140" as="geometry"/>
                </mxCell>
                <mxCell id="19" value="Individual Nodes' States (enum)" style="text;html=1;align=center;verticalAlign=middle;resizable=0;points=[];autosize=1;strokeColor=none;fillColor=none;" vertex="1" parent="1">
                    <mxGeometry x="550" y="140" width="190" height="20" as="geometry"/>
                </mxCell>
                <mxCell id="20" value="CHOOSE" style="text;html=1;align=center;verticalAlign=middle;resizable=0;points=[];autosize=1;strokeColor=none;fillColor=none;" vertex="1" parent="1">
                    <mxGeometry x="610" y="180" width="70" height="20" as="geometry"/>
                </mxCell>
                <mxCell id="21" value="CONFIG" style="text;html=1;align=center;verticalAlign=middle;resizable=0;points=[];autosize=1;strokeColor=none;fillColor=none;" vertex="1" parent="1">
                    <mxGeometry x="615" y="200" width="60" height="20" as="geometry"/>
                </mxCell>
                <mxCell id="22" value="COMPLETE" style="text;html=1;align=center;verticalAlign=middle;resizable=0;points=[];autosize=1;strokeColor=none;fillColor=none;" vertex="1" parent="1">
                    <mxGeometry x="610" y="220" width="80" height="20" as="geometry"/>
                </mxCell>
                <mxCell id="23" value="" style="whiteSpace=wrap;html=1;" vertex="1" parent="1">
                    <mxGeometry x="840" y="170" width="90" height="140" as="geometry"/>
                </mxCell>
                <mxCell id="24" value="Individual Node Object" style="text;html=1;align=center;verticalAlign=middle;resizable=0;points=[];autosize=1;strokeColor=none;fillColor=none;" vertex="1" parent="1">
                    <mxGeometry x="815" y="140" width="140" height="20" as="geometry"/>
                </mxCell>
            </root>
        </mxGraphModel>
    </diagram>
</mxfile>